<svg width="180" height="55" viewBox="0 0 180 55" fill="none" xmlns="http://www.w3.org/2000/svg">
<g clip-path="url(#clip0_15_469)">
<path fill-rule="evenodd" clip-rule="evenodd" d="M0.177128 24.9446V54.9902H5.71726C5.71726 49.2405 5.71726 44.5229 5.71726 40.6701L9.51564 48.9457L13.3239 40.5325V54.9902H18.864C18.8738 39.2352 18.8837 30.1635 18.8935 24.9446H13.7667L9.52548 35.7657L5.24492 24.9446H0.177128Z" fill="white"/>
<path fill-rule="evenodd" clip-rule="evenodd" d="M28.9307 35.9328L25.7129 54.9705L19.8382 54.9902L25.6145 24.9544H32.2469L38.0232 54.9902L32.1583 54.9705L28.9307 35.9328Z" fill="white"/>
<path fill-rule="evenodd" clip-rule="evenodd" d="M54.4468 55C52.1146 55 50.4516 55 49.2609 55H49.2904C48.946 54.0663 47.8931 51.1866 44.6162 42.2525C44.6162 47.1864 44.6162 51.393 44.6162 54.9804C42.8154 54.9804 40.9654 54.9804 39.0761 54.9804C39.0761 47.8351 39.0761 38.1246 39.0761 24.9348C40.5325 24.9348 41.9692 24.9348 43.3763 24.9348L48.9361 38.5668C48.9361 34.4782 48.9361 29.9571 48.9361 24.9544H54.4763C54.4763 37.9378 54.4763 47.6778 54.4763 55C54.4664 55 54.4566 55 54.4468 55Z" fill="white"/>
<path fill-rule="evenodd" clip-rule="evenodd" d="M179.97 54.9902C177.638 54.9902 175.975 54.9902 174.794 54.9902H174.824C174.48 54.0663 173.427 51.1767 170.15 42.2427C170.15 47.1766 170.15 51.3831 170.15 54.9705C168.349 54.9705 166.509 54.9705 164.61 54.9705C164.61 47.8252 164.61 38.1147 164.61 24.925C166.066 24.925 167.503 24.925 168.9 24.925L174.46 38.557C174.46 34.4684 174.46 29.9473 174.46 24.9446H180C180 37.928 180 47.6778 180 54.9902C179.99 54.9902 179.98 54.9902 179.97 54.9902Z" fill="white"/>
<path fill-rule="evenodd" clip-rule="evenodd" d="M80.2876 35.923L77.0698 54.9607L71.1951 54.9803L76.9812 24.9446H83.6038L89.3899 54.9803L83.5152 54.9607L80.2876 35.923Z" fill="white"/>
<path fill-rule="evenodd" clip-rule="evenodd" d="M154.454 35.923L151.237 54.9607L145.362 54.9803L151.138 24.9446H157.771L163.547 54.9803L157.672 54.9607L154.454 35.923Z" fill="white"/>
<path fill-rule="evenodd" clip-rule="evenodd" d="M144.437 54.9804L138.592 54.9902C138.592 38.9698 138.592 29.9866 138.592 24.9446H144.437C144.437 30.7729 144.437 40.1001 144.437 54.9804Z" fill="white"/>
<path fill-rule="evenodd" clip-rule="evenodd" d="M67.4262 54.9902H56.0409C56.0409 50.0563 56.0409 41.1222 56.0409 24.9446H67.4262C69.3943 24.9446 70.9884 26.5466 70.9884 28.5123C70.9884 28.5222 70.9884 28.532 70.9884 28.5418V28.4829C70.9884 39.2647 70.9884 46.5475 70.9884 51.4618V51.393C70.9884 51.4028 70.9884 51.4126 70.9884 51.4225C70.9884 53.398 69.3943 54.9902 67.4262 54.9902ZM64.2773 49.555C64.543 49.555 64.7496 49.3487 64.7496 49.0833C64.7496 44.7686 64.7496 38.8912 64.7496 30.9007V30.9203V30.9105C64.7496 30.6549 64.543 30.4387 64.2773 30.4387H61.7385C61.7385 38.901 61.7385 45.0733 61.7385 49.5649L64.2773 49.555Z" fill="white"/>
<path fill-rule="evenodd" clip-rule="evenodd" d="M117.012 24.9544H107.516C106.02 24.9544 104.81 26.1633 104.81 27.6573C104.81 40.0313 104.81 47.6287 104.81 52.2972C104.81 53.7911 106.02 55 107.516 55H117.012C118.508 55 119.718 53.7911 119.718 52.2972C119.718 47.3436 119.718 39.6381 119.718 27.6573C119.718 26.1633 118.508 24.9544 117.012 24.9544ZM113.538 49.555C113.804 49.555 114.011 49.3486 114.011 49.0833C114.011 44.7882 114.011 38.9207 114.011 30.9105C114.011 30.6549 113.804 30.4387 113.538 30.4387H110.822H110.842H110.832C110.576 30.4387 110.36 30.6549 110.36 30.9105C110.36 38.96 110.36 44.8177 110.36 49.0833C110.36 49.3486 110.576 49.555 110.832 49.555H113.538Z" fill="white"/>
<path fill-rule="evenodd" clip-rule="evenodd" d="M96.2191 49.555H103.265C103.265 51.6485 103.265 53.4471 103.265 54.9902H90.6692C90.6692 49.899 90.6692 40.8962 90.6692 24.9446H96.2093C96.2191 36.7191 96.2191 44.4639 96.2191 49.555Z" fill="white"/>
<path fill-rule="evenodd" clip-rule="evenodd" d="M130.857 37.0926C131.113 37.0926 131.33 36.8763 131.33 36.6208C131.33 34.8517 131.33 32.9548 131.33 30.9006C131.33 30.6451 131.113 30.4289 130.857 30.4289H127.246C127.246 42.8717 127.246 50.4101 127.246 54.9803H121.548C121.548 50.017 121.548 41.0633 121.548 24.9446L134.114 24.8365C135.61 24.8365 136.82 26.0454 136.82 27.5393V27.5197C136.82 32.2373 136.82 36.3259 136.82 39.8642V39.8445C136.82 41.3385 135.61 42.5474 134.114 42.5474H134.134C133.937 42.5474 133.721 42.5474 133.494 42.5474C136.023 49.8204 137.244 53.3095 137.824 54.9902L137.844 54.9803H131.33C129.765 48.9358 128.948 45.8104 128.535 44.1887C128.535 42.0559 128.535 39.7069 128.535 37.0926C129.686 37.0926 130.405 37.0926 130.857 37.0926Z" fill="white"/>
<path fill-rule="evenodd" clip-rule="evenodd" d="M91.3777 18.163C91.3777 18.9099 91.3777 19.4996 91.3777 19.9616H92.8439C92.8439 19.6176 92.8439 18.5758 92.8439 15.4012H91.3777C91.3777 16.1088 91.3777 16.728 91.3777 17.2784H88.6716C88.6716 16.728 88.6716 16.099 88.6716 15.4012H87.2053C87.2053 18.448 87.2053 19.5586 87.2053 19.9616H88.6716C88.6716 19.4996 88.6716 18.9198 88.6716 18.163H91.3777Z" fill="white"/>
<path fill-rule="evenodd" clip-rule="evenodd" d="M86.0442 15.4012C86.0442 15.7157 86.0442 16.0105 86.0442 16.2857L83.9875 16.2661C83.9875 18.0647 83.9875 19.2245 83.9875 19.9616H82.5213C82.5213 19.2146 82.5213 18.0647 82.5213 16.2857H80.4647C80.4647 16.0105 80.4647 15.7157 80.4647 15.4012H86.0442Z" fill="white"/>
<path fill-rule="evenodd" clip-rule="evenodd" d="M96.4454 18.163V19.077C97.7444 19.077 98.8662 19.077 99.8404 19.077V19.9518H94.9891C94.9891 19.4112 94.9891 18.1728 94.9891 15.3914H99.8404V16.2759V16.2563C99.8404 16.2563 99.8404 16.2563 96.4454 16.2563V17.2784H99.0925C99.0925 17.6126 99.0925 17.8976 99.0925 18.163H96.4454Z" fill="white"/>
<path fill-rule="evenodd" clip-rule="evenodd" d="M0 20.227C79.9431 20.227 79.9431 20.227 79.9431 20.227C79.9431 19.9321 79.9431 19.4702 79.9431 18.7625H0C0 19.3424 0 19.824 0 20.227Z" fill="white"/>
<path fill-rule="evenodd" clip-rule="evenodd" d="M180 20.2564C102.419 20.2564 102.419 20.2564 102.419 20.2564C102.419 19.9616 102.419 19.4996 102.419 18.792H180C180 19.3719 180 19.8535 180 20.2564Z" fill="white"/>
<path fill-rule="evenodd" clip-rule="evenodd" d="M69.473 7.55808L71.9429 1.78852e-06H75.6724L78.1817 7.55808H75.3379L74.8655 6.19193H72.6317L72.1594 7.55808H69.473ZM73.8126 1.67084L72.74 4.66852H74.8065L73.8126 1.67084ZM101.051 7.55808L103.521 1.78852e-06H107.25L109.759 7.55808H106.916L106.443 6.19193H104.209L103.737 7.55808H101.051ZM105.4 1.68067L104.328 4.67834H106.394L105.4 1.68067ZM78.8312 7.55808V1.78852e-06H84.1942C84.8043 1.78852e-06 85.2963 0.216228 85.6801 0.481596C86.0639 0.746964 86.3984 1.09096 86.5362 1.5529C86.7232 2.2114 86.6838 2.74214 86.5559 3.10579C86.4279 3.46944 86.2115 3.77413 85.8966 4.01984C85.5817 4.26555 85.3258 4.45229 84.7452 4.59972C84.9716 4.82577 84.9716 4.8356 85.2373 5.02234C85.6014 5.27788 85.9359 5.31719 87.166 5.31719H89.2915V7.56791H87.1463C84.824 7.57774 83.9974 7.55808 83.5546 7.15511C82.9937 6.65386 82.3836 6.06416 81.5373 5.06165V7.55808H78.8312ZM81.5373 1.88706V3.2827H83.4266C83.525 3.2827 83.6333 3.24339 83.7514 3.17459C83.8695 3.09596 83.9285 2.90922 83.9383 2.60454C83.9187 2.31952 83.8498 2.12295 83.7317 2.03449C83.6136 1.94603 83.5054 1.89689 83.4266 1.89689H81.5373V1.88706ZM126.842 1.78852e-06H121.302C120.348 1.78852e-06 119.777 0.461939 119.6 1.40547C119.423 2.33917 119.934 3.36133 121.145 4.48177C121.873 5.06165 121.745 5.33685 120.771 5.30736H119.482H118.803C117.573 5.29754 117.238 5.26805 116.874 5.01251C116.608 4.82577 116.608 4.81594 116.382 4.58989C116.963 4.45229 117.228 4.25572 117.533 4.01001C117.848 3.7643 118.065 3.45962 118.193 3.09596C118.321 2.73231 118.36 2.20157 118.173 1.54307C118.045 1.08113 117.71 0.737135 117.317 0.471767C116.933 0.206399 116.431 -0.00982666 115.831 -0.00982666H110.468V7.54825H113.184V5.06165C114.03 6.06416 114.64 6.65386 115.201 7.15511C115.644 7.55808 116.461 7.58756 118.793 7.56791H119.196H123.192C124.274 7.38117 124.825 6.83077 124.845 5.88724C124.864 4.95354 124.323 3.98052 123.192 2.99768C122.572 2.46694 122.7 2.25072 123.585 2.25072H126.852V1.78852e-06H126.842ZM113.174 1.88706V3.2827H115.063C115.162 3.2827 115.27 3.24339 115.388 3.17459C115.506 3.09596 115.565 2.90922 115.575 2.60454C115.555 2.31952 115.487 2.12295 115.368 2.03449C115.25 1.94603 115.142 1.89689 115.063 1.89689H113.174V1.88706ZM59.0028 1.78852e-06C58.0483 1.78852e-06 57.4776 0.461939 57.3005 1.40547C57.1233 2.33917 57.6055 3.40065 58.8454 4.48177C59.5441 5.10097 59.4555 5.30736 58.4715 5.30736H53.0396V7.55808H60.8725C61.9648 7.55808 62.506 6.82095 62.5257 5.87741C62.5454 4.94371 61.9943 3.98052 60.8725 2.98785C60.2427 2.46694 60.3805 2.22123 61.2661 2.24089H64.6315V7.54825H67.0719V2.24089H70.4767V1.78852e-06H59.0028ZM94.8119 1.78852e-06L94.1428 2.25072L93.3949 1.78852e-06H90.5904L93.0604 7.55808H95.4811L96.3077 5.03217L97.1343 7.55808H99.555L102.025 1.78852e-06H99.2204L98.4726 2.25072L97.8133 1.78852e-06H94.8119Z" fill="white"/>
</g>
<defs>
<clipPath id="clip0_15_469">
<rect width="180" height="55" fill="white"/>
</clipPath>
</defs>
</svg>
